<?xml version="1.0" standalone="no"?>
<!DOCTYPE svg PUBLIC "-//W3C//DTD SVG 20010904//EN"
 "http://www.w3.org/TR/2001/REC-SVG-20010904/DTD/svg10.dtd">
<svg version="1.0" xmlns="http://www.w3.org/2000/svg"
 width="1200.000000pt" height="1200.000000pt" viewBox="0 0 1200.000000 1200.000000"
 preserveAspectRatio="xMidYMid meet">
<metadata>
Created by potrace 1.16, written by Peter Selinger 2001-2019
</metadata>
<g transform="translate(0.000000,1200.000000) scale(0.100000,-0.100000)"
fill="#000000" stroke="none">
<path d="M5675 11199 c-498 -38 -928 -127 -1373 -285 -917 -326 -1727 -920
-2358 -1729 -70 -90 -224 -308 -224 -318 0 -5 206 -117 214 -117 2 0 55 69
117 152 410 549 886 986 1439 1318 756 455 1613 690 2519 690 438 0 822 -49
1231 -156 694 -182 1350 -527 1897 -997 292 -251 573 -560 808 -887 47 -66 88
-120 91 -120 8 0 147 72 186 96 l38 24 -52 78 c-300 446 -732 900 -1188 1248
-597 457 -1362 796 -2095 928 -417 75 -878 103 -1250 75z M5580 10115 c-150
-21 -246 -44 -374 -86 -345 -116 -623 -301 -844 -564 -426 -507 -511 -1188
-219 -1750 91 -174 281 -386 457 -507 188 -130 440 -238 670 -287 153 -33 282
-50 955 -126 911 -104 996 -121 1200 -238 171 -98 304 -239 390 -412 109 -220
138 -435 90 -669 -74 -361 -350 -628 -735 -713 -64 -14 -175 -17 -730 -22
l-655 -6 -3 -1052 -2 -1053 210 0 210 0 0 864 0 864 458 5 c489 5 554 11 759
67 102 28 339 146 428 212 214 160 386 404 468 665 77 241 77 574 1 815 -68
216 -175 390 -344 558 -128 129 -239 209 -401 288 -191 94 -358 138 -684 182
-232 32 -278 38 -615 80 -868 110 -1000 136 -1220 245 -182 89 -323 206 -439
365 -124 170 -180 333 -188 550 -8 209 25 367 113 544 71 140 130 223 244 336
200 200 442 325 745 386 130 26 475 26 595 1 192 -41 388 -125 527 -226 24
-17 46 -31 50 -31 5 0 29 33 54 73 25 39 83 129 128 199 44 69 81 130 81 135
0 10 -143 95 -235 141 -123 61 -320 121 -500 154 -146 26 -507 34 -645 13z
M863 8433 c-133 -271 -169 -351 -162 -358 10 -9 173 -74 178 -70 4 2 49 92
100 199 65 135 99 196 110 196 20 0 161 -66 161 -76 0 -3 -36 -80 -80 -171
-44 -91 -80 -170 -80 -174 0 -7 141 -79 154 -79 3 0 44 78 91 174 l86 174 52
-21 c108 -44 108 -21 1 -244 -52 -108 -93 -196 -92 -197 66 -35 159 -76 170
-76 9 0 31 35 56 88 22 48 86 180 141 295 56 114 101 210 101 213 0 3 -24 16
-52 28 -29 13 -93 43 -143 66 -49 23 -184 85 -300 137 -115 53 -240 111 -277
129 -37 19 -71 34 -76 34 -5 0 -67 -120 -139 -267z M10925 8592 c-49 -48 -208
-203 -353 -343 l-262 -256 52 -117 52 -118 105 7 c58 3 171 10 251 16 80 5
257 16 394 24 137 8 250 16 253 18 4 5 -49 142 -73 189 -16 30 -16 30 -82 24
-37 -4 -83 -9 -103 -12 l-36 -5 -66 149 c-37 82 -67 153 -67 157 0 4 32 36 70
72 39 36 70 70 70 76 0 22 -93 207 -104 207 -6 0 -51 -40 -101 -88z m-47 -489
c23 -53 40 -99 37 -101 -5 -5 -270 -31 -310 -31 -14 0 14 33 100 115 65 62
122 114 125 114 3 0 24 -44 48 -97z M677 7695 c-120 -44 -201 -159 -227 -321
-12 -75 0 -165 30 -223 47 -92 152 -154 260 -154 126 -1 198 55 299 233 86
151 127 179 188 126 24 -21 28 -32 27 -73 -1 -79 -39 -121 -119 -132 l-40 -6
-3 -104 -3 -104 63 5 c165 13 281 144 295 334 11 142 -40 242 -153 299 -50 25
-70 30 -135 30 -67 0 -82 -4 -125 -30 -58 -37 -102 -92 -169 -215 -56 -104
-83 -130 -132 -130 -53 0 -83 36 -83 101 0 96 43 149 129 159 l46 5 3 108 3
107 -58 -1 c-32 0 -75 -7 -96 -14z M11408 7526 c-54 -10 -98 -24 -98 -30 0 -6
18 -96 41 -199 23 -103 40 -190 37 -192 -2 -2 -166 -34 -363 -70 -198 -36
-361 -68 -363 -70 -5 -5 29 -198 39 -216 7 -14 34 -11 241 27 128 23 339 61
468 84 129 23 237 43 238 45 2 2 -12 77 -32 167 -19 90 -50 231 -67 313 -17
83 -34 152 -38 155 -3 3 -50 -3 -103 -14z M1084 6745 c-2 -5 -7 -62 -11 -125
l-8 -115 -355 0 c-195 -1 -361 -2 -367 -3 -10 -1 -13 -34 -13 -123 l0 -122
365 8 364 7 3 -128 3 -129 104 2 c57 1 108 6 112 10 4 4 9 169 11 365 l3 357
-104 3 c-63 2 -105 -1 -107 -7z M10717 6534 c-4 -4 -7 -150 -7 -325 l0 -319
23 -4 c12 -3 141 -7 287 -10 146 -4 356 -9 468 -13 l202 -6 -2 334 -3 334
-100 0 -100 0 -3 -205 c-2 -148 -6 -206 -15 -212 -12 -9 -152 -9 -174 0 -10 3
-13 50 -13 187 l0 182 -37 7 c-48 7 -101 7 -130 0 -23 -6 -23 -8 -23 -190 l0
-184 -85 0 -85 0 -2 213 -3 212 -95 3 c-53 1 -99 0 -103 -4z M5344 6383 c-53
-82 -135 -208 -183 -281 -121 -186 -276 -424 -426 -652 -71 -107 -191 -292
-268 -410 -77 -118 -181 -278 -232 -355 -50 -77 -112 -171 -137 -210 -25 -38
-108 -167 -185 -285 -77 -118 -175 -269 -218 -335 -43 -66 -109 -167 -146
-224 -38 -57 -69 -108 -69 -112 0 -5 103 -8 237 -7 l238 3 100 150 c55 83 174
264 265 404 91 139 235 360 320 490 85 130 180 274 209 321 30 47 96 148 146
225 51 77 122 186 158 243 l66 102 724 0 724 0 7 61 c8 78 8 203 0 252 l-7 37
-618 0 c-341 0 -619 2 -619 4 0 3 26 44 59 93 32 48 107 162 166 253 59 91
137 209 171 262 35 53 64 101 64 107 0 8 -72 11 -225 11 l-225 0 -96 -147z
M351 5788 c0 -13 8 -63 17 -113 l17 -89 35 -7 c19 -4 65 -10 101 -14 l66 -6
22 -127 c13 -70 27 -139 31 -155 8 -25 5 -30 -28 -51 -21 -13 -61 -35 -89 -50
-47 -23 -52 -29 -44 -49 4 -12 16 -62 26 -110 10 -49 24 -91 30 -93 7 -3 72
31 146 74 74 43 197 114 274 157 77 43 187 106 245 140 58 34 126 74 153 89
26 15 47 28 47 30 0 20 -52 252 -58 258 -5 5 -132 24 -283 43 -459 58 -655 84
-686 90 -19 4 -23 1 -22 -17z m618 -264 c155 -15 181 -19 170 -28 -2 -1 -73
-39 -157 -84 -95 -50 -155 -76 -157 -69 -7 21 -35 169 -35 183 0 8 3 14 6 14
4 0 81 -7 173 -16z M1427 5803 c-3 -2 -1 -17 3 -31 5 -15 14 -53 20 -84 11
-55 14 -59 61 -84 27 -15 49 -31 49 -35 0 -5 -13 -30 -30 -56 -16 -26 -30 -54
-30 -62 0 -28 43 -162 51 -159 4 2 45 50 92 107 l84 104 -26 99 -26 100 -105
47 c-128 58 -137 61 -143 54z M10841 5608 c-93 -26 -168 -105 -211 -221 -34
-92 -115 -385 -108 -392 14 -14 896 -275 930 -275 11 0 23 30 43 108 15 59 28
111 29 116 0 6 -61 27 -138 47 -76 21 -140 39 -142 41 -7 8 25 111 41 128 9 9
83 42 166 71 89 32 151 60 154 69 12 42 45 243 41 247 -6 6 -275 -97 -349
-134 -27 -14 -50 -23 -51 -21 -1 2 -13 27 -26 57 -32 70 -101 131 -172 154
-59 18 -153 21 -207 5z m154 -242 c42 -18 75 -69 75 -116 0 -38 -24 -147 -34
-157 -5 -5 -241 54 -254 63 -9 6 22 123 41 156 34 62 102 83 172 54z M1350
4888 c-91 -44 -282 -137 -425 -205 -143 -69 -261 -127 -263 -128 -5 -5 86
-199 95 -202 4 -1 125 55 268 126 143 70 261 127 263 126 2 -2 -32 -57 -75
-124 -89 -136 -283 -435 -297 -455 -7 -10 6 -46 42 -120 28 -58 54 -106 56
-106 3 0 47 22 98 49 86 45 684 350 735 375 13 6 23 18 23 27 0 29 -80 179
-96 179 -8 0 -123 -54 -255 -121 -133 -66 -242 -119 -244 -117 -2 2 14 28 34
59 20 30 61 93 91 140 30 46 94 145 143 219 70 107 87 140 83 161 -9 47 -84
199 -98 198 -7 0 -87 -37 -178 -81z M10427 4788 c-14 -24 -69 -131 -124 -238
-55 -107 -121 -234 -147 -282 l-47 -87 28 -14 c15 -8 59 -31 97 -51 38 -20 70
-36 72 -36 1 0 28 48 59 108 31 59 58 108 60 110 4 4 112 -50 195 -98 124 -71
492 -260 499 -256 10 6 115 216 110 220 -2 2 -155 78 -339 170 -184 92 -339
171 -343 176 -5 4 15 54 45 111 29 57 54 107 56 111 3 6 -172 98 -188 98 -5 0
-20 -19 -33 -42z M10014 3921 c-129 -33 -263 -176 -300 -320 -16 -63 -9 -144
17 -192 24 -45 96 -113 144 -135 102 -48 190 -26 357 88 108 75 154 89 193 64
111 -73 -9 -246 -139 -201 -40 15 -41 14 -64 -13 -13 -15 -41 -53 -64 -85 -45
-66 -47 -61 42 -115 61 -36 169 -38 245 -4 133 61 245 233 245 377 0 110 -69
218 -172 269 -106 53 -226 30 -357 -69 -90 -69 -121 -85 -161 -85 -90 0 -94
125 -5 180 35 22 85 24 126 6 13 -6 30 11 73 75 32 45 55 88 52 95 -8 22 -105
65 -154 69 -26 2 -61 1 -78 -4z M1815 3906 c-72 -17 -157 -63 -230 -123 -111
-91 -177 -198 -198 -318 -30 -175 79 -382 243 -463 72 -35 183 -42 265 -17 95
30 95 29 34 127 l-52 86 -72 -1 c-61 -2 -77 2 -108 23 -109 73 -99 230 21 342
78 74 134 100 216 106 62 3 75 1 106 -20 54 -37 80 -83 80 -143 0 -29 -6 -59
-15 -71 -8 -10 -14 -26 -15 -34 0 -8 34 -46 76 -84 73 -66 75 -68 95 -50 11 9
34 47 52 83 29 59 32 75 32 152 0 80 -3 91 -39 163 -97 190 -298 289 -491 242z
M9213 3082 c-120 -115 -242 -230 -271 -257 -29 -26 -51 -52 -50 -56 2 -5 59
-75 128 -155 69 -81 208 -244 309 -363 101 -119 188 -220 192 -225 5 -5 37 16
76 50 116 101 448 421 493 474 l43 51 -64 68 c-35 38 -68 69 -72 70 -5 0 -97
-85 -205 -189 l-197 -190 -62 67 c-34 38 -62 71 -63 75 0 5 68 74 150 154 83
81 150 152 150 158 -1 14 -114 136 -126 136 -5 0 -74 -65 -154 -145 -80 -80
-149 -145 -155 -145 -5 0 -35 28 -66 62 l-57 63 179 173 c98 96 179 178 179
184 0 13 -119 148 -131 148 -5 0 -107 -94 -226 -208z M2301 2933 l-331 -337
90 -91 91 -90 132 135 c73 75 222 229 331 343 l199 208 -24 23 c-13 12 -54 50
-90 85 l-67 62 -331 -338z M3145 2731 c-27 -21 -187 -139 -355 -262 -168 -124
-320 -235 -337 -249 -18 -13 -33 -26 -33 -29 0 -8 183 -131 194 -131 5 0 41
24 80 53 39 29 76 56 83 60 7 5 67 -30 145 -84 73 -50 134 -92 135 -93 2 -1
-10 -50 -26 -109 l-29 -107 82 -53 c117 -76 157 -100 160 -96 5 6 196 963 196
979 -1 16 -211 160 -232 159 -7 0 -35 -17 -63 -38z m35 -329 c-12 -48 -30
-117 -41 -154 l-20 -68 -90 61 c-50 33 -87 64 -83 69 62 56 250 198 252 190 2
-6 -6 -50 -18 -98z M7515 2063 c-82 -25 -151 -46 -152 -47 -3 -2 -39 -425 -58
-671 -8 -110 -17 -227 -21 -259 l-5 -59 44 6 c47 7 217 54 226 63 3 3 11 51
16 107 l10 101 183 59 183 59 48 -53 c26 -30 59 -66 72 -82 l24 -28 130 45
c93 32 130 49 130 60 0 15 -177 214 -503 565 -90 97 -167 177 -170 177 -4 1
-74 -19 -157 -43z m193 -350 c56 -65 102 -122 102 -128 1 -9 -191 -75 -219
-75 -11 0 -12 24 -7 133 6 119 13 187 20 187 1 0 48 -53 104 -117z M4606 2063
c-3 -10 -42 -151 -86 -313 -44 -162 -96 -351 -115 -420 -54 -194 -78 -165 190
-232 362 -90 461 -103 565 -72 117 35 187 114 197 223 3 33 0 73 -6 93 -12 38
-82 114 -113 124 -27 8 -22 22 11 29 42 9 104 57 131 101 18 28 24 53 24 98 2
106 -67 189 -194 237 -40 15 -576 149 -596 149 -2 0 -5 -8 -8 -17z m416 -274
c56 -15 98 -54 98 -93 0 -44 -24 -74 -70 -86 -33 -9 -59 -6 -152 15 -61 13
-115 28 -119 32 -7 7 25 154 37 174 3 6 105 -15 206 -42z m-182 -329 c192 -42
235 -67 235 -142 0 -48 -34 -83 -91 -94 -35 -6 -140 11 -252 43 -58 16 -56 2
-26 128 19 78 22 85 32 85 4 0 50 -9 102 -20z M6185 1885 c-335 -74 -524 -318
-469 -607 32 -173 143 -297 319 -356 74 -25 92 -27 250 -27 160 0 175 2 250
28 241 85 374 241 391 462 7 83 -21 202 -63 274 -60 103 -179 185 -319 221
-91 24 -265 26 -359 5z m253 -220 c62 -27 103 -65 130 -124 22 -47 26 -70 26
-147 1 -82 -3 -97 -29 -150 -50 -98 -136 -144 -270 -144 -128 0 -217 64 -249
179 -40 143 5 297 106 359 81 50 202 61 286 27z"/>
</g>
</svg>
